<svg width="27" height="27" viewBox="0 0 27 27" fill="none" xmlns="http://www.w3.org/2000/svg">
<path d="M13.3333 2.66667C7.4493 2.66667 2.66667 7.46532 2.66667 13.4004C2.66667 15.0835 3.05069 16.6724 3.73391 18.0867C4.05423 18.7497 3.77639 19.5469 3.11333 19.8672C2.45027 20.1876 1.65308 19.9097 1.33276 19.2467C0.478397 17.4782 0 15.4935 0 13.4004C0 6.0066 5.96254 0 13.3333 0C20.7041 0 26.6667 6.0066 26.6667 13.4004C26.6667 15.4935 26.1883 17.4782 25.3339 19.2467C25.0136 19.9097 24.2164 20.1876 23.5533 19.8672C22.8903 19.5469 22.6124 18.7497 22.9328 18.0867C23.616 16.6724 24 15.0835 24 13.4004C24 7.46532 19.2174 2.66667 13.3333 2.66667Z" fill="black"/>
<path fill-rule="evenodd" clip-rule="evenodd" d="M16.682 19.0992C18.6662 17.9444 20 15.7946 20 13.3333C20 9.65143 17.0152 6.66667 13.3333 6.66667C9.65143 6.66667 6.66667 9.65143 6.66667 13.3333C6.66667 15.7946 8.00046 17.9444 9.98467 19.0992C7.9438 19.6523 6.38247 20.66 5.25001 21.6729C4.41292 22.4216 3.81161 23.1706 3.41644 23.7378C3.21837 24.022 3.07051 24.2629 2.96938 24.4383C2.91877 24.5261 2.87972 24.5978 2.85181 24.6507C2.83784 24.6771 2.82665 24.6988 2.81818 24.7156L2.8075 24.7369L2.80367 24.7446L2.80213 24.7478L2.80146 24.7492C2.80114 24.7498 2.80084 24.7504 4 25.3333L2.80084 24.7504C2.4789 25.4127 2.7548 26.2106 3.41708 26.5325C4.07755 26.8536 4.87288 26.58 5.19652 25.9216L5.19728 25.9201L5.20972 25.8962C5.22307 25.8709 5.2463 25.828 5.27975 25.77C5.34673 25.6538 5.45409 25.478 5.60439 25.2622C5.90598 24.8294 6.37412 24.2451 7.02777 23.6605C8.32229 22.5026 10.3503 21.3333 13.3333 21.3333C16.3163 21.3333 18.3444 22.5026 19.6389 23.6605C20.2925 24.2451 20.7607 24.8294 21.0623 25.2622C21.2126 25.478 21.3199 25.6538 21.3869 25.77C21.4204 25.828 21.4436 25.8709 21.457 25.8962L21.4694 25.9201L21.4701 25.9216C21.7938 26.58 22.5891 26.8536 23.2496 26.5325C23.9119 26.2106 24.1878 25.4127 23.8658 24.7504L22.6667 25.3333C23.8658 24.7504 23.8655 24.7498 23.8652 24.7492L23.863 24.7446L23.8592 24.7369L23.8485 24.7156C23.84 24.6988 23.8288 24.6771 23.8149 24.6507C23.7869 24.5978 23.7479 24.5261 23.6973 24.4383C23.5962 24.2629 23.4483 24.022 23.2502 23.7378C22.8551 23.1706 22.2538 22.4216 21.4167 21.6729C20.2842 20.66 18.7229 19.6523 16.682 19.0992ZM13.3333 17.3333C15.5425 17.3333 17.3333 15.5425 17.3333 13.3333C17.3333 11.1242 15.5425 9.33333 13.3333 9.33333C11.1242 9.33333 9.33333 11.1242 9.33333 13.3333C9.33333 15.5425 11.1242 17.3333 13.3333 17.3333Z" fill="black"/>
</svg>
